<svg width="134" height="118" viewBox="0 0 134 118" fill="none" xmlns="http://www.w3.org/2000/svg">
<path d="M133 55.6667L103 3.66671C101.667 1.66671 99.6667 0.333374 97 0.333374H37C34.3333 0.333374 32.3333 1.66671 31 3.66671L1 55.6667C-0.333333 57.6667 -0.333333 60.3334 1 62.3334L31 114.333C32.3333 116.333 34.3333 117.667 37 117.667H97C99.6667 117.667 101.667 116.333 103 114.333L133 62.3334C133.667 60.3334 133.667 57.6667 133 55.6667Z" fill="#198754"/>
<g clip-path="url(#clip0_2059_142)">
<path fill-rule="evenodd" clip-rule="evenodd" d="M66.5078 75.6421C66.6078 75.6421 66.6078 75.6421 66.7079 75.6421C69.0083 75.9421 71.4087 75.042 74.1092 73.0416L74.5092 73.2417C74.2092 74.4419 74.2092 75.8421 74.1092 77.4424C73.9091 79.7428 73.7091 82.1432 73.6091 84.0435C73.6091 85.9439 72.909 86.644 73.5091 87.7442C69.5084 93.0451 68.0081 107.648 74.3092 109.448C83.6108 112.148 91.1121 97.6459 91.0121 90.5447C92.5124 89.6445 92.2123 87.3441 93.1125 84.8437C94.3127 81.4431 94.4127 77.2424 94.0126 74.5419C95.713 73.5417 95.3129 68.5408 94.8128 65.7403C95.3129 65.9404 95.913 66.3405 96.3131 66.4405C96.7131 66.5405 96.9132 66.4405 97.2132 66.6405C99.2136 68.9409 102.214 70.5412 104.014 71.1413C110.716 73.6417 113.616 66.6405 110.816 62.0397C109.115 59.2392 107.715 56.3387 104.615 54.0383C103.014 50.9378 97.9133 48.1373 95.913 46.9371C94.5127 45.8369 93.0125 44.1366 89.5119 43.6365C90.312 41.3361 91.2122 39.4357 90.412 36.6353C90.512 28.5338 90.8121 25.8334 86.2113 19.2322C81.6105 12.531 74.1092 7.03007 66.4078 9.73054C58.7065 7.03007 51.2052 12.631 46.6043 19.2322C42.0035 25.8334 42.3036 28.5338 42.4036 36.6353C41.6035 39.4357 42.6036 41.3361 43.3038 43.6365C39.8032 44.1366 38.2029 45.8369 36.9026 46.9371C34.8023 48.0372 29.8014 50.8377 28.2011 54.0383C25.2006 56.3387 23.7003 59.3392 22 62.0397C19.1995 66.6405 22.1001 73.6417 28.8012 71.1413C30.5015 70.5412 33.6021 68.9409 35.6024 66.6405C36.0025 66.5405 36.2025 66.6405 36.5026 66.4405C37.0027 66.2404 37.6028 65.8404 38.0028 65.7403C37.5028 68.5408 37.1027 73.5417 38.803 74.5419C38.4029 77.2424 38.6029 81.4431 39.7031 84.8437C40.6033 87.3441 40.3032 89.6445 41.8035 90.5447C41.7035 97.6459 49.3048 112.148 58.5064 109.448C64.8075 107.648 63.3073 93.0451 59.3066 87.7442C60.0067 86.644 59.3066 85.9439 59.2066 84.0435C59.2066 82.1432 58.9065 79.6428 58.7065 77.4424C58.6064 75.9421 58.6064 74.4419 58.3064 73.2417L58.7065 73.0416C61.4069 75.042 63.8074 75.9421 66.1078 75.6421C66.2078 75.6421 66.2078 75.6421 66.3078 75.6421H66.5078Z" fill="black"/>
<path fill-rule="evenodd" clip-rule="evenodd" d="M82.9108 80.4429C82.2106 80.943 81.4105 82.2432 81.4105 82.2432C81.4105 82.2432 80.6104 84.8437 78.51 87.4442C76.4096 90.0446 75.4094 91.3448 74.7093 94.1453C74.0092 96.9458 73.9092 99.9463 73.9092 102.147C73.9092 104.347 74.8093 105.447 75.9095 105.747C77.0097 105.947 79.8102 104.647 82.0106 101.347C84.211 98.046 86.1113 94.1453 86.2113 91.5449C86.3114 88.9444 86.1113 84.4436 85.7112 82.8433C85.7112 82.8433 84.8111 80.743 84.011 79.4427C82.8107 87.0441 81.0104 93.5452 78.61 98.9462C80.1103 94.1453 81.6105 89.6445 82.4107 84.4436C82.6107 83.0434 82.8107 81.7432 83.0108 80.4429H82.9108Z" fill="#135A32"/>
<path fill-rule="evenodd" clip-rule="evenodd" d="M49.6049 80.4429C50.305 80.943 51.1051 82.2432 51.1051 82.2432C51.1051 82.2432 51.9053 84.8437 54.0056 87.4442C56.106 90.0446 57.1062 91.3448 57.8063 94.1453C58.5064 96.9458 58.6065 99.9463 58.6065 102.147C58.6065 104.347 57.7063 105.447 56.6061 105.747C55.5059 105.947 52.7054 104.647 50.505 101.347C48.3046 98.046 46.4043 94.1453 46.3043 91.5449C46.2043 88.9444 46.4043 84.4436 46.8044 82.8433C46.8044 82.8433 47.7045 80.743 48.5047 79.4427C49.7049 87.0441 51.5052 93.5452 53.9056 98.9462C52.4054 94.1453 50.9051 89.6445 50.105 84.4436C49.9049 83.0434 49.7049 81.7432 49.5049 80.4429H49.6049Z" fill="#135A32"/>
<path fill-rule="evenodd" clip-rule="evenodd" d="M76.2095 19.6322C78.4099 21.7326 80.9103 24.133 81.7105 26.6334C77.2097 21.7326 73.209 19.7322 68.3081 16.9317C68.3081 16.9317 71.4087 16.5317 76.3095 17.7319C74.5092 16.4317 70.2084 13.8312 68.3081 13.1311C76.2095 12.931 82.2105 19.6322 84.611 26.6334C84.611 26.6334 81.1103 21.7326 76.1095 19.6322H76.2095Z" fill="#FCFFFF"/>
<path fill-rule="evenodd" clip-rule="evenodd" d="M55.9059 19.6322C53.7055 21.7326 51.205 24.133 50.4049 26.6334C54.9057 21.7326 58.9064 19.7322 63.8073 16.9317C63.8073 16.9317 60.7067 16.5317 55.8058 17.7319C57.6062 16.4317 61.9069 13.8312 63.8073 13.1311C55.9059 12.931 49.9048 19.6322 47.5044 26.6334C47.5044 26.6334 51.005 21.7326 56.0059 19.6322H55.9059Z" fill="#FCFFFF"/>
<path fill-rule="evenodd" clip-rule="evenodd" d="M97.7131 55.5386C97.7131 55.5386 96.2128 55.7386 95.3127 56.2387C97.013 57.5389 98.5132 58.9392 99.7134 60.2394C99.7134 60.2394 97.313 58.3391 95.2126 56.9388C95.4127 58.239 96.3128 60.1394 96.3128 60.1394C96.3128 60.1394 98.2132 61.6396 98.6132 62.3398C99.0133 63.0399 99.9135 64.0401 101.314 65.1403C102.714 66.2404 104.114 67.0406 105.114 67.2406C106.215 67.4407 107.215 67.0406 106.815 65.2403C106.415 63.44 104.614 61.0395 103.814 60.0394C103.014 58.9392 102.214 57.6389 100.914 56.9388C99.6134 56.2387 97.7131 55.5386 97.7131 55.5386Z" fill="#EE2732"/>
<path fill-rule="evenodd" clip-rule="evenodd" d="M96.2129 60.2393C96.2129 60.2393 95.3127 58.339 95.1127 57.0388C95.0127 56.9388 94.8126 56.8387 94.7126 56.7387C92.5122 55.3385 90.1118 54.2383 90.1118 54.2383C90.1118 54.2383 91.212 57.5389 91.412 58.339C91.6121 59.1391 91.8121 59.4392 92.6123 59.9393C93.3124 60.4394 96.713 62.2397 96.713 62.2397C96.4129 61.5396 96.2129 60.8394 96.1129 60.0393L96.2129 60.2393Z" fill="#FCFFFF"/>
<path fill-rule="evenodd" clip-rule="evenodd" d="M89.9118 52.838C91.6121 53.7382 93.5125 54.9384 95.2128 56.3387C96.1129 55.8386 97.6132 55.6385 97.6132 55.6385C97.6132 55.6385 98.4133 55.5385 99.0134 55.5385C99.6135 55.5385 99.9136 55.6385 99.9136 55.6385C99.9136 55.6385 98.9134 54.5383 96.813 52.9381C94.7127 51.3378 93.8125 50.5376 92.3123 50.4376C90.812 50.3376 88.7116 50.0376 88.7116 50.0376C89.6118 49.7375 90.5119 49.4374 91.4121 49.1374C91.4121 49.1374 89.0117 47.6371 86.2112 47.2371C86.2112 47.2371 87.5114 48.9374 88.0115 49.9375C88.5116 50.9377 88.9117 52.2379 89.9118 52.838Z" fill="#FCFFFF"/>
<path fill-rule="evenodd" clip-rule="evenodd" d="M34.1022 55.5386C34.1022 55.5386 35.6025 55.7386 36.5026 56.2387C34.8023 57.5389 33.3021 58.9392 32.1018 60.2394C32.1018 60.2394 34.5023 58.3391 36.6026 56.9388C36.4026 58.239 35.5024 60.1394 35.5024 60.1394C35.5024 60.1394 33.6021 61.6396 33.202 62.3398C32.802 63.0399 31.9018 64.0401 30.5016 65.1403C29.1013 66.2404 27.7011 67.0406 26.7009 67.2406C25.6007 67.4407 24.6005 67.0406 25.0006 65.2403C25.4007 63.44 27.201 61.0395 28.0011 60.0394C28.8013 58.9392 29.6014 57.6389 30.9016 56.9388C32.2019 56.2387 34.1022 55.5386 34.1022 55.5386Z" fill="#EE2732"/>
<path fill-rule="evenodd" clip-rule="evenodd" d="M35.5023 60.2393C35.5023 60.2393 36.4024 58.339 36.6025 57.0388C36.7025 56.9388 36.9025 56.8387 37.0025 56.7387C39.2029 55.3385 41.6034 54.2383 41.6034 54.2383C41.6034 54.2383 40.5032 57.5389 40.3031 58.339C40.1031 59.1391 39.9031 59.4392 39.1029 59.9393C38.4028 60.4394 35.0022 62.2397 35.0022 62.2397C35.3022 61.5396 35.5023 60.8394 35.6023 60.0393L35.5023 60.2393Z" fill="#FCFFFF"/>
<path fill-rule="evenodd" clip-rule="evenodd" d="M41.8035 52.838C40.1032 53.7382 38.2029 54.9384 36.5026 56.3387C35.6024 55.8386 34.1022 55.6385 34.1022 55.6385C34.1022 55.6385 33.302 55.5385 32.7019 55.5385C32.1018 55.5385 31.8018 55.6385 31.8018 55.6385C31.8018 55.6385 32.8019 54.5383 34.9023 52.9381C37.0027 51.3378 37.9028 50.5376 39.4031 50.4376C40.9034 50.3376 43.0037 50.0376 43.0037 50.0376C42.1036 49.7375 41.2034 49.4374 40.3032 49.1374C40.3032 49.1374 42.7037 47.6371 45.5042 47.2371C45.5042 47.2371 44.2039 48.9374 43.7038 49.9375C43.2038 50.9377 42.8037 52.2379 41.8035 52.838Z" fill="#FCFFFF"/>
<path fill-rule="evenodd" clip-rule="evenodd" d="M81.4105 82.2432C81.4105 82.2432 82.3107 80.943 82.9108 80.4429C84.4111 68.8409 84.011 58.239 83.3109 58.239C82.1107 58.239 85.4112 71.1413 79.0101 79.0427C79.0101 79.0427 79.2102 75.242 79.1101 74.7419C79.1101 74.2418 79.9103 73.4417 81.1105 70.5412C82.3107 67.6407 82.0106 65.7403 82.0106 65.7403C82.0106 65.7403 80.0103 69.841 79.4102 71.1413C78.8101 72.3415 77.8099 73.8417 77.8099 76.1421C77.8099 78.4426 77.3098 85.0437 77.0098 86.444C78.21 86.0439 81.4105 82.3432 81.4105 82.3432V82.2432Z" fill="#FCFFFF"/>
<path fill-rule="evenodd" clip-rule="evenodd" d="M83.9109 79.4428C84.611 80.743 85.6112 82.8434 85.6112 82.8434C86.3113 83.8435 87.6115 87.3442 87.6115 87.3442C87.6115 87.3442 88.7117 82.2433 89.2118 80.3429C89.6119 78.4426 89.4119 75.142 88.9118 73.1417C88.5117 71.1413 87.6115 67.1406 87.6115 67.1406C87.6115 67.1406 89.6119 70.1411 90.312 71.6414C90.312 69.441 89.6119 59.2392 85.7112 54.3384C85.7112 63.64 85.1111 72.0415 83.9109 79.4428Z" fill="#FCFFFF"/>
<path fill-rule="evenodd" clip-rule="evenodd" d="M51.105 82.2432C51.105 82.2432 50.2049 80.943 49.6048 80.4429C48.1045 68.8409 48.5046 58.239 49.2047 58.239C50.4049 58.239 47.1043 71.1413 53.5055 79.0427C53.5055 79.0427 53.3054 75.242 53.4054 74.7419C53.4054 74.2418 52.6053 73.4417 51.4051 70.5412C50.2049 67.6407 50.5049 65.7403 50.5049 65.7403C50.5049 65.7403 52.5053 69.841 53.1054 71.1413C53.7055 72.3415 54.7057 73.8417 54.7057 76.1421C54.7057 78.4426 55.2058 85.0437 55.5058 86.444C54.3056 86.0439 51.105 82.3432 51.105 82.3432V82.2432Z" fill="#FCFFFF"/>
<path fill-rule="evenodd" clip-rule="evenodd" d="M48.5046 79.4428C47.8045 80.743 46.8043 82.8434 46.8043 82.8434C46.1042 83.8435 44.804 87.3442 44.804 87.3442C44.804 87.3442 43.7038 82.2433 43.2037 80.3429C42.8036 78.4426 43.0037 75.142 43.5038 73.1417C43.9038 71.1413 44.804 67.1406 44.804 67.1406C44.804 67.1406 42.8036 70.1411 42.1035 71.6414C42.1035 69.441 42.8036 59.2392 46.7043 54.3384C46.7043 63.64 47.3044 72.0415 48.5046 79.4428Z" fill="#FCFFFF"/>
<path fill-rule="evenodd" clip-rule="evenodd" d="M67.108 71.4414C68.2082 71.4414 69.4084 71.1413 70.9086 69.7411C72.4089 68.3408 78.91 61.4396 79.9102 59.2392C80.9104 57.0388 81.3105 53.3382 81.3105 53.3382C81.3105 53.3382 81.0104 53.5382 79.9102 54.3384C80.6103 52.6381 81.2104 50.6377 81.6105 48.6374C82.3106 45.2368 82.6107 40.5359 80.3103 37.6354C79.1101 36.1352 77.0097 34.7349 73.4091 33.0346C66.8079 29.9341 65.9078 25.8334 65.9078 25.8334C65.9078 25.8334 65.1076 30.0341 58.4064 33.0346C54.8058 34.6349 52.7054 36.0352 51.5052 37.6354C49.2048 40.5359 49.5049 45.2368 50.205 48.6374C50.6051 50.6377 51.2052 52.6381 51.9053 54.3384C50.8051 53.5382 50.5051 53.3382 50.5051 53.3382C50.5051 53.3382 50.9051 57.0388 51.9053 59.2392C52.9055 61.4396 59.3066 68.3408 60.9069 69.7411C62.4071 71.1413 63.7074 71.4414 64.7076 71.4414C65.4077 71.4414 66.1078 71.4414 66.8079 71.4414H67.108ZM69.4084 51.2378C69.4084 51.2378 70.5086 52.438 70.7086 53.1382C70.9086 53.9383 70.8086 54.5384 69.8084 54.5384C68.8083 54.5384 67.7081 55.6386 67.408 55.7386C67.108 55.8386 66.5079 56.0387 66.2078 55.9387C65.9078 56.0387 65.3077 55.9387 65.0076 55.7386C64.7076 55.6386 63.6074 54.5384 62.6072 54.5384C61.607 54.5384 61.507 53.9383 61.707 53.1382C61.9071 52.338 63.0073 51.2378 63.0073 51.2378C61.9071 51.7379 61.0069 52.7381 60.5068 53.8383C60.0067 55.0385 61.1069 55.1385 62.2071 55.3385C63.0073 55.4386 63.8074 56.1387 64.5075 56.6388C65.3077 57.1389 66.3078 57.0388 66.3078 57.0388C66.3078 57.0388 67.308 57.2389 68.1081 56.6388C68.7083 56.2387 69.6084 55.5386 70.4086 55.3385C71.6088 55.1385 72.709 55.0385 72.1088 53.8383C71.6088 52.6381 70.7086 51.7379 69.6084 51.2378H69.4084ZM80.5103 49.2375C78.3099 49.2375 73.4091 49.6375 71.6088 48.3373C71.5087 48.8374 71.0087 50.6377 72.1088 50.6377C74.0092 50.6377 73.6091 50.6377 75.4094 51.1378C75.7095 51.2378 79.3101 51.1378 79.3101 51.1378C79.3101 51.1378 80.4103 50.9378 80.6103 49.1375L80.5103 49.2375ZM79.1101 52.238C78.1099 52.238 73.6091 52.5381 72.909 51.7379C72.909 52.6381 72.709 53.5382 73.7091 53.7383C74.7093 53.8383 78.51 53.9383 78.51 53.9383L79.0101 52.238H79.1101ZM51.7053 49.2375C54.9058 49.3375 57.6063 49.7376 60.6068 48.3373C60.9069 48.3373 60.9069 50.1376 60.5068 50.4377C59.0066 50.9378 55.1059 51.4379 54.0057 51.4379C52.8055 51.4379 51.9053 51.2378 51.7053 49.2375ZM60.3068 51.5379C57.6063 52.438 55.806 52.238 53.0055 52.238C53.0055 52.238 53.2055 53.9383 54.0057 53.8383C54.8058 53.8383 58.0064 53.6382 58.4064 53.6382C58.8065 53.6382 59.8067 53.0381 60.2068 51.5379H60.3068Z" fill="#A6B2A8"/>
<path fill-rule="evenodd" clip-rule="evenodd" d="M86.4114 36.7352C86.9115 36.4352 87.3116 36.6352 87.6116 36.9353C88.1117 37.4353 88.2117 37.9354 87.8117 38.2355C87.3116 38.5355 86.3114 39.7357 85.4113 41.236C84.5111 42.7363 82.7108 47.137 82.7108 47.137C82.3107 43.9365 83.1109 39.0356 86.3114 36.7352H86.4114Z" fill="#A6B2A8"/>
<path fill-rule="evenodd" clip-rule="evenodd" d="M45.7042 36.7352C45.2041 36.4352 44.8041 36.6352 44.504 36.9353C44.0039 37.4353 43.9039 37.9354 44.304 38.2355C44.8041 38.5355 45.8043 39.7357 46.7044 41.236C47.6046 42.7363 49.4049 47.137 49.4049 47.137C49.805 43.9365 49.0048 39.0356 45.8043 36.7352H45.7042Z" fill="#A6B2A8"/>
<path fill-rule="evenodd" clip-rule="evenodd" d="M73.8091 46.637C72.3089 46.637 71.1087 45.4368 71.1087 43.9366C71.1087 42.4363 72.3089 41.2361 73.8091 41.2361C74.7093 41.2361 75.5094 41.6362 76.0095 42.3363C76.0095 42.3363 76.0095 42.3363 76.0095 42.4363C76.3096 42.8364 76.5096 43.4365 76.5096 43.9366C76.5096 45.4368 75.3094 46.637 73.8091 46.637ZM73.8091 40.636C72.0088 40.636 70.5085 42.1362 70.5085 43.9366C70.5085 45.7369 72.0088 47.2371 73.8091 47.2371C75.6094 47.2371 77.1097 45.7369 77.1097 43.9366C77.1097 42.1362 75.6094 40.636 73.8091 40.636Z" fill="#901219"/>
<path fill-rule="evenodd" clip-rule="evenodd" d="M73.8093 46.237C75.0095 46.237 76.0097 45.2368 76.0097 44.0366C76.0097 43.8366 76.0097 43.6365 75.9096 43.4365C75.7096 43.6365 75.5096 43.7366 75.2095 43.7366C74.7094 43.7366 74.4094 43.3365 74.4094 42.9364C74.4094 42.5363 74.6094 42.2363 75.0095 42.1363C74.6094 41.9362 74.2093 41.7362 73.8093 41.7362C72.6091 41.7362 71.6089 42.7364 71.6089 43.9366C71.6089 45.1368 72.6091 46.137 73.8093 46.137V46.237Z" fill="#EE2732"/>
<path fill-rule="evenodd" clip-rule="evenodd" d="M75.0093 42.1363C74.7093 42.2363 74.4092 42.5364 74.4092 42.9365C74.4092 43.4366 74.8093 43.7366 75.2094 43.7366C75.5094 43.7366 75.7094 43.6366 75.9095 43.4365C75.9095 43.6366 76.0095 43.8366 76.0095 44.0367C76.0095 45.2369 75.0093 46.237 73.8091 46.237C72.6089 46.237 71.6087 45.2369 71.6087 44.0367C71.6087 42.8364 72.6089 41.8363 73.8091 41.8363C74.3092 41.8363 74.7093 41.9363 75.0093 42.2363V42.1363ZM73.8091 46.7371C75.3094 46.7371 76.5096 45.5369 76.5096 44.0367C76.5096 42.5364 75.3094 41.3362 73.8091 41.3362C72.3089 41.3362 71.1086 42.5364 71.1086 44.0367C71.1086 45.5369 72.3089 46.7371 73.8091 46.7371Z" fill="#FCFFFF"/>
<path fill-rule="evenodd" clip-rule="evenodd" d="M79.5103 42.9364C79.7103 41.0361 78.01 40.636 76.6098 41.2361C75.2095 41.8362 73.1092 43.2365 71.2088 43.6365C69.5085 43.9366 68.0083 43.7366 67.9083 42.1363C67.8082 41.5362 68.2083 40.836 68.7084 40.636C68.1083 42.0363 68.7084 42.9364 70.2087 42.0363C71.4089 41.3361 73.2092 39.9359 74.8095 39.3358C78.01 38.0356 81.2106 41.2361 79.4103 42.9364H79.5103Z" fill="black"/>
<path fill-rule="evenodd" clip-rule="evenodd" d="M63.2073 47.3372C63.2073 47.3372 62.9073 46.137 62.3072 45.4368C62.0071 45.1368 61.9071 45.0368 61.507 45.3368C60.8069 45.8369 60.1068 47.0371 58.4065 47.3372C56.2061 47.6372 54.8059 46.237 54.8059 46.237C54.8059 46.237 58.7066 47.0371 59.8067 44.4367C58.9066 44.5367 58.1064 44.6367 57.6064 44.5367C56.7062 44.4367 56.1061 43.0364 55.506 43.4365C54.9059 43.8366 55.606 44.2366 55.9061 44.6367C55.406 44.7367 54.6058 44.6367 54.1057 44.4367C52.7055 43.7365 55.406 41.9362 56.1061 41.8362C55.2059 40.436 52.6055 40.736 52.6055 42.8364C50.8052 41.2361 53.7057 39.1357 55.806 39.1357C57.4063 39.1357 59.7067 40.736 60.8069 41.4361C62.2072 42.4363 64.0075 43.5365 63.6074 40.736C63.6074 40.736 64.2075 41.1361 64.3075 41.9362C64.4075 42.7364 63.6074 43.2365 63.6074 43.2365C63.6074 43.2365 63.7074 46.8371 63.1073 47.3372H63.2073Z" fill="black"/>
<path fill-rule="evenodd" clip-rule="evenodd" d="M60.5069 50.3377C60.9069 50.0376 60.9069 48.2373 60.6069 48.2373C57.6064 49.5375 54.9059 49.2375 51.7053 49.1375C51.9054 51.1378 52.8055 51.3378 54.0057 51.3378C55.1059 51.3378 59.0066 50.9378 60.6069 50.3377H60.5069Z" fill="black"/>
<path fill-rule="evenodd" clip-rule="evenodd" d="M60.3067 51.4379C57.6062 52.338 55.8059 52.138 53.0054 52.138C53.0054 52.138 53.2054 53.8383 54.0055 53.8383C54.8057 53.8383 58.0062 53.6383 58.4063 53.6383C58.8064 53.6383 59.8066 53.0381 60.3067 51.5379V51.4379Z" fill="black"/>
<path fill-rule="evenodd" clip-rule="evenodd" d="M72.0088 50.6377C73.9091 50.6377 73.5091 50.6377 75.3094 51.2378C75.6094 51.3378 79.2101 51.2378 79.2101 51.2378C79.2101 51.2378 80.3102 51.0378 80.5103 49.2374C78.3099 49.2374 73.409 49.6375 71.6087 48.3373C71.5087 48.8374 71.0086 50.6377 72.1088 50.6377H72.0088Z" fill="black"/>
<path fill-rule="evenodd" clip-rule="evenodd" d="M79.11 52.138C78.1098 52.138 73.609 52.4381 72.9089 51.6379C72.9089 52.5381 72.7089 53.4383 73.709 53.6383C74.7092 53.8383 78.6099 53.8383 78.6099 53.8383L79.11 52.138Z" fill="black"/>
<path fill-rule="evenodd" clip-rule="evenodd" d="M67.608 56.6388L67.8081 56.9389L66.9079 57.939H66.0078H65.2076L64.3075 56.9389L64.5075 56.6388L64.6075 56.2387L63.5073 56.0387V57.4389L65.0076 58.8392H66.0078H67.108L68.6082 57.4389V56.0387L67.508 56.2387L67.608 56.6388Z" fill="#5F5F61"/>
<path fill-rule="evenodd" clip-rule="evenodd" d="M70.1084 55.3385C71.3086 55.1385 72.4088 54.9384 71.9087 53.8383C71.4086 52.638 70.5085 51.7379 69.4083 51.2378C69.4083 51.2378 70.5085 52.438 70.7085 53.1381C70.9085 53.9383 70.8085 54.5384 69.8084 54.5384C68.7082 54.5384 67.708 55.6386 67.4079 55.7386C67.1079 55.9386 66.5078 56.0386 66.2077 55.9386C65.9077 56.0386 65.3076 55.9386 65.0075 55.7386C64.7075 55.6386 63.6073 54.5384 62.6071 54.5384C61.5069 54.5384 61.5069 53.9383 61.7069 53.1381C61.907 52.338 63.0072 51.2378 63.0072 51.2378C61.907 51.7379 61.0068 52.7381 60.5067 53.8383C60.0066 55.0385 61.1068 55.2385 62.307 55.3385C63.1072 55.4385 63.9073 56.1387 64.6074 56.6387C65.4076 57.1388 66.4078 57.0388 66.4078 57.0388C66.4078 57.0388 67.4079 57.2388 68.2081 56.6387C68.8082 56.2387 69.7083 55.5385 70.5085 55.3385H70.1084Z" fill="black"/>
<path fill-rule="evenodd" clip-rule="evenodd" d="M66.0078 59.8393C67.9081 58.239 70.7086 59.9393 72.7089 60.6394C73.309 60.8395 73.6091 60.6394 73.5091 60.1393C73.4091 59.6393 73.109 58.5391 73.109 58.5391C73.5091 59.1392 75.1094 61.3396 74.3092 62.0397C74.1092 62.1397 73.9091 62.1397 73.6091 62.0397C71.3087 60.8395 68.6082 61.1395 66.0078 61.0395C63.4073 61.0395 60.8068 60.7395 58.4064 62.0397C58.1064 62.2397 57.8063 62.2397 57.7063 62.0397C56.9062 61.3396 58.5064 59.1392 58.9065 58.5391C58.9065 58.5391 58.6065 59.5392 58.5064 60.1393C58.4064 60.7395 58.6065 60.8395 59.3066 60.6394C61.3069 59.9393 64.2074 58.239 66.0078 59.8393Z" fill="black"/>
<path fill-rule="evenodd" clip-rule="evenodd" d="M70.7085 63.5399C68.1081 64.14 63.9073 64.14 61.3069 63.5399C63.6073 67.3406 68.4081 67.3406 70.7085 63.5399Z" fill="black"/>
<path fill-rule="evenodd" clip-rule="evenodd" d="M60.0068 64.9402L61.9071 67.4406C62.4072 66.8405 62.4072 66.0403 61.9071 65.4402C61.407 64.8401 60.6069 64.6401 59.9067 65.0402L60.0068 64.9402Z" fill="#5F5F61"/>
<path d="M59.7065 65.1403L61.6069 67.6407" stroke="#5F5F61" stroke-width="0.200035" stroke-miterlimit="22.9256"/>
<path fill-rule="evenodd" clip-rule="evenodd" d="M59.9066 66.0404L60.9068 67.2406L57.0061 69.341L59.9066 66.0404Z" fill="#5F5F61"/>
<path fill-rule="evenodd" clip-rule="evenodd" d="M72.5088 64.9402L70.6085 67.4406C70.1084 66.8405 70.1084 66.0403 70.6085 65.4402C71.1086 64.8401 71.9087 64.6401 72.6088 65.0402L72.5088 64.9402Z" fill="#5F5F61"/>
<path d="M72.8089 65.1403L70.8086 67.6407" stroke="#5F5F61" stroke-width="0.200035" stroke-miterlimit="22.9256"/>
<path fill-rule="evenodd" clip-rule="evenodd" d="M72.5088 66.0404L71.6086 67.2406L75.5093 69.341L72.5088 66.0404Z" fill="#5F5F61"/>
</g>
<defs>
<clipPath id="clip0_2059_142">
<rect width="91.0159" height="100.778" fill="white" transform="translate(21 9)"/>
</clipPath>
</defs>
</svg>
