<svg width="26" height="26" viewBox="0 0 26 26" fill="none" xmlns="http://www.w3.org/2000/svg">
<path d="M7.75661 0.5C3.76022 0.5 0.5 3.76022 0.5 7.75661V18.2434C0.5 22.2398 3.76022 25.5 7.75661 25.5H18.2434C22.2398 25.5 25.5 22.2398 25.5 18.2434V7.75661C25.5 3.76022 22.2398 0.5 18.2434 0.5H7.75661ZM7.75661 2.42308H18.2434C21.1994 2.42308 23.5769 4.79688 23.5769 7.75661V18.2434C23.5769 21.1994 21.2031 23.5769 18.2434 23.5769H7.75661C4.80063 23.5769 2.42308 21.2031 2.42308 18.2434V7.75661C2.42308 4.80063 4.79688 2.42308 7.75661 2.42308ZM20.2115 4.34615C19.4153 4.34615 18.7692 4.99219 18.7692 5.78846C18.7692 6.58474 19.4153 7.23077 20.2115 7.23077C21.0078 7.23077 21.6538 6.58474 21.6538 5.78846C21.6538 4.99219 21.0078 4.34615 20.2115 4.34615ZM13 6.26923C9.29282 6.26923 6.26923 9.29282 6.26923 13C6.26923 16.7072 9.29282 19.7308 13 19.7308C16.7072 19.7308 19.7308 16.7072 19.7308 13C19.7308 9.29282 16.7072 6.26923 13 6.26923ZM13 8.19231C15.6668 8.19231 17.8077 10.3332 17.8077 13C17.8077 15.6668 15.6668 17.8077 13 17.8077C10.3332 17.8077 8.19231 15.6668 8.19231 13C8.19231 10.3332 10.3332 8.19231 13 8.19231Z" fill="white"/>
</svg>
