<svg width="62" height="68" viewBox="0 0 62 68" fill="none" xmlns="http://www.w3.org/2000/svg">
<g clip-path="url(#clip0_2006_17)">
<path fill-rule="evenodd" clip-rule="evenodd" d="M31.1129 45.0328C31.1796 45.0328 31.1796 45.0328 31.2462 45.0328C32.7798 45.2328 34.3801 44.6327 36.1804 43.2992L36.4472 43.4325C36.2471 44.2327 36.2471 45.1661 36.1804 46.233C36.0471 47.7666 35.9137 49.3669 35.847 50.6338C35.847 51.9007 35.3803 52.3674 35.7804 53.1009C33.1132 56.6348 32.1131 66.3699 36.3138 67.5701C42.5149 69.3704 47.5158 59.702 47.4491 54.9679C48.4493 54.3678 48.2492 52.8342 48.8493 51.1672C49.6495 48.9001 49.7161 46.0996 49.4494 44.2993C50.583 43.6325 50.3162 40.2986 49.9829 38.4316C50.3162 38.565 50.7163 38.8317 50.983 38.8984C51.2497 38.9651 51.3831 38.8984 51.5831 39.0317C52.9167 40.5653 54.9171 41.6322 56.1173 42.0323C60.5847 43.6992 62.5184 39.0317 60.6514 35.9645C59.5179 34.0975 58.5844 32.1639 56.5173 30.6303C55.4505 28.5632 52.0499 26.6962 50.7163 25.8961C49.7828 25.1626 48.7826 24.0291 46.4489 23.6957C46.9823 22.1621 47.5824 20.8952 47.049 19.0282C47.1157 13.6273 47.3157 11.827 44.2485 7.42621C41.1813 2.95876 36.1804 -0.708552 31.0462 1.09176C25.912 -0.708552 20.9111 3.02543 17.8439 7.42621C14.7767 11.827 14.9767 13.6273 15.0434 19.0282C14.51 20.8952 15.1768 22.1621 15.6435 23.6957C13.3098 24.0291 12.2429 25.1626 11.3761 25.8961C9.97585 26.6296 6.64193 28.4966 5.57508 30.6303C3.57473 32.1639 2.57455 34.1642 1.44102 35.9645C-0.425971 39.0317 1.5077 43.6992 5.97515 42.0323C7.10868 41.6322 9.17571 40.5653 10.5093 39.0317C10.776 38.9651 10.9093 39.0317 11.1094 38.8984C11.4428 38.765 11.8428 38.4983 12.1096 38.4316C11.7762 40.2986 11.5095 43.6325 12.643 44.2993C12.3763 46.0996 12.5096 48.9001 13.2431 51.1672C13.8432 52.8342 13.6432 54.3678 14.6433 54.9679C14.5767 59.702 19.6442 69.3704 25.7786 67.5701C29.9794 66.3699 28.9792 56.6348 26.312 53.1009C26.7788 52.3674 26.312 51.9007 26.2454 50.6338C26.2454 49.3669 26.0453 47.6999 25.912 46.233C25.8453 45.2328 25.8453 44.2327 25.6453 43.4325L25.912 43.2992C27.7123 44.6327 29.3126 45.2328 30.8462 45.0328C30.9129 45.0328 30.9129 45.0328 30.9795 45.0328H31.1129Z" fill="black"/>
<path fill-rule="evenodd" clip-rule="evenodd" d="M42.0482 48.2334C41.5814 48.5668 41.048 49.4336 41.048 49.4336C41.048 49.4336 40.5146 51.1673 39.1143 52.9009C37.7141 54.6346 37.0473 55.5014 36.5805 57.3684C36.1138 59.2354 36.0471 61.2357 36.0471 62.7026C36.0471 64.1696 36.6472 64.903 37.3807 65.1031C38.1141 65.2364 39.9811 64.3696 41.4481 62.1692C42.915 59.9688 44.1819 57.3684 44.2486 55.6347C44.3152 53.9011 44.1819 50.9006 43.9152 49.8337C43.9152 49.8337 43.3151 48.4335 42.7816 47.5667C41.9815 52.6342 40.7813 56.9683 39.181 60.5689C40.1812 57.3684 41.1814 54.3678 41.7148 50.9006C41.8481 49.9671 41.9815 49.1003 42.1148 48.2334H42.0482Z" fill="#135A32"/>
<path fill-rule="evenodd" clip-rule="evenodd" d="M19.8443 48.2334C20.3111 48.5668 20.8445 49.4336 20.8445 49.4336C20.8445 49.4336 21.3779 51.1673 22.7782 52.9009C24.1784 54.6346 24.8452 55.5014 25.312 57.3684C25.7787 59.2354 25.8454 61.2357 25.8454 62.7026C25.8454 64.1696 25.2453 64.903 24.5118 65.1031C23.7784 65.2364 21.9114 64.3696 20.4444 62.1692C18.9775 59.9688 17.7106 57.3684 17.6439 55.6347C17.5773 53.9011 17.7106 50.9006 17.9773 49.8337C17.9773 49.8337 18.5774 48.4335 19.1109 47.5667C19.911 52.6342 21.1112 56.9683 22.7115 60.5689C21.7113 57.3684 20.7111 54.3678 20.1777 50.9006C20.0444 49.9671 19.911 49.1003 19.7777 48.2334H19.8443Z" fill="#135A32"/>
<path fill-rule="evenodd" clip-rule="evenodd" d="M37.5808 7.69296C39.0477 9.09321 40.7147 10.6935 41.2481 12.3604C38.2476 9.09321 35.5805 7.75964 32.3132 5.89265C32.3132 5.89265 34.3803 5.62593 37.6475 6.42607C36.4473 5.55926 33.5801 3.82562 32.3132 3.35887C37.5808 3.22551 41.5815 7.69296 43.1818 12.3604C43.1818 12.3604 40.8481 9.09321 37.5141 7.69296H37.5808Z" fill="#FCFFFF"/>
<path fill-rule="evenodd" clip-rule="evenodd" d="M24.0451 7.69296C22.5781 9.09321 20.9112 10.6935 20.3778 12.3604C23.3783 9.09321 26.0454 7.75964 29.3127 5.89265C29.3127 5.89265 27.2456 5.62593 23.9784 6.42607C25.1786 5.55926 28.0458 3.82562 29.3127 3.35887C24.0451 3.22551 20.0444 7.69296 18.4441 12.3604C18.4441 12.3604 20.7778 9.09321 24.1118 7.69296H24.0451Z" fill="#FCFFFF"/>
<path fill-rule="evenodd" clip-rule="evenodd" d="M51.9165 31.6306C51.9165 31.6306 50.9163 31.764 50.3162 32.0974C51.4497 32.9642 52.4499 33.8977 53.25 34.7645C53.25 34.7645 51.6498 33.4976 50.2495 32.5641C50.3829 33.4309 50.983 34.6978 50.983 34.6978C50.983 34.6978 52.2499 35.698 52.5166 36.1647C52.7833 36.6315 53.3834 37.2983 54.3169 38.0317C55.2504 38.7652 56.1839 39.2986 56.8507 39.432C57.5841 39.5653 58.2509 39.2986 57.9842 38.0984C57.7175 36.8982 56.5173 35.2979 55.9838 34.6311C55.4504 33.8977 54.917 33.0309 54.0502 32.5641C53.1834 32.0974 51.9165 31.6306 51.9165 31.6306Z" fill="#EE2732"/>
<path fill-rule="evenodd" clip-rule="evenodd" d="M50.9163 34.7644C50.9163 34.7644 50.3162 33.4975 50.1828 32.6307C50.1161 32.564 49.9828 32.4973 49.9161 32.4306C48.4492 31.4971 46.8489 30.7637 46.8489 30.7637C46.8489 30.7637 47.5823 32.9641 47.7157 33.4975C47.8491 34.0309 47.9824 34.2309 48.5158 34.5643C48.9826 34.8977 51.2497 36.0979 51.2497 36.0979C51.0496 35.6312 50.9163 35.1644 50.8496 34.631L50.9163 34.7644Z" fill="#FCFFFF"/>
<path fill-rule="evenodd" clip-rule="evenodd" d="M46.7156 29.8302C47.8492 30.4303 49.1161 31.2304 50.2496 32.1639C50.8497 31.8305 51.8499 31.6972 51.8499 31.6972C51.8499 31.6972 52.3833 31.6305 52.7834 31.6305C53.1834 31.6305 53.3835 31.6972 53.3835 31.6972C53.3835 31.6972 52.7167 30.9637 51.3164 29.8969C49.9162 28.83 49.3161 28.2966 48.3159 28.2299C47.3157 28.1632 45.9155 27.9632 45.9155 27.9632C46.5156 27.7631 47.1157 27.5631 47.7158 27.3631C47.7158 27.3631 46.1155 26.3629 44.2485 26.0962C44.2485 26.0962 45.1154 27.2297 45.4487 27.8965C45.7821 28.5633 46.0488 29.4301 46.7156 29.8302Z" fill="#FCFFFF"/>
<path fill-rule="evenodd" clip-rule="evenodd" d="M9.50905 31.6306C9.50905 31.6306 10.5092 31.764 11.1093 32.0974C9.9758 32.9642 8.97562 33.8977 8.17548 34.7645C8.17548 34.7645 9.77576 33.4976 11.176 32.5641C11.0426 33.4309 10.4425 34.6978 10.4425 34.6978C10.4425 34.6978 9.17566 35.698 8.90894 36.1647C8.64223 36.6315 8.04212 37.2983 7.10863 38.0317C6.17513 38.7652 5.24163 39.2986 4.57485 39.432C3.84139 39.5653 3.17461 39.2986 3.44132 38.0984C3.70803 36.8982 4.90824 35.2979 5.44167 34.6311C5.9751 33.8977 6.50852 33.0309 7.37534 32.5641C8.24216 32.0974 9.50905 31.6306 9.50905 31.6306Z" fill="#EE2732"/>
<path fill-rule="evenodd" clip-rule="evenodd" d="M10.4425 34.7644C10.4425 34.7644 11.0426 33.4975 11.176 32.6307C11.2427 32.564 11.376 32.4973 11.4427 32.4306C12.9096 31.4971 14.5099 30.7637 14.5099 30.7637C14.5099 30.7637 13.7764 32.9641 13.6431 33.4975C13.5097 34.0309 13.3764 34.2309 12.8429 34.5643C12.3762 34.8977 10.1091 36.0979 10.1091 36.0979C10.3092 35.6312 10.4425 35.1644 10.5092 34.631L10.4425 34.7644Z" fill="#FCFFFF"/>
<path fill-rule="evenodd" clip-rule="evenodd" d="M14.6432 29.8302C13.5096 30.4303 12.2428 31.2304 11.1092 32.1639C10.5091 31.8305 9.50894 31.6972 9.50894 31.6972C9.50894 31.6972 8.97552 31.6305 8.57545 31.6305C8.17538 31.6305 7.97534 31.6972 7.97534 31.6972C7.97534 31.6972 8.64212 30.9637 10.0424 29.8969C11.4426 28.83 12.0427 28.2966 13.0429 28.2299C14.0431 28.1632 15.4433 27.9632 15.4433 27.9632C14.8432 27.7631 14.2431 27.5631 13.643 27.3631C13.643 27.3631 15.2433 26.3629 17.1103 26.0962C17.1103 26.0962 16.2435 27.2297 15.9101 27.8965C15.5767 28.5633 15.31 29.4301 14.6432 29.8302Z" fill="#FCFFFF"/>
<path fill-rule="evenodd" clip-rule="evenodd" d="M41.0479 49.4335C41.0479 49.4335 41.648 48.5666 42.048 48.2333C43.0482 40.4986 42.7815 33.4307 42.3148 33.4307C41.5146 33.4307 43.715 42.0322 39.4476 47.2998C39.4476 47.2998 39.5809 44.766 39.5143 44.4326C39.5143 44.0992 40.0477 43.5658 40.8478 41.6321C41.648 39.6984 41.4479 38.4315 41.4479 38.4315C41.4479 38.4315 40.1144 41.1654 39.7143 42.0322C39.3142 42.8323 38.6474 43.8325 38.6474 45.3661C38.6474 46.8997 38.314 51.3005 38.114 52.234C38.9142 51.9672 41.0479 49.5001 41.0479 49.5001V49.4335Z" fill="#FCFFFF"/>
<path fill-rule="evenodd" clip-rule="evenodd" d="M42.7148 47.5666C43.1816 48.4334 43.8484 49.8336 43.8484 49.8336C44.3151 50.5004 45.1819 52.8342 45.1819 52.8342C45.1819 52.8342 45.9154 49.4336 46.2488 48.1667C46.5155 46.8998 46.3822 44.6994 46.0488 43.3658C45.782 42.0323 45.1819 39.3651 45.1819 39.3651C45.1819 39.3651 46.5155 41.3655 46.9823 42.3657C46.9823 40.8988 46.5155 34.0976 43.9151 30.8303C43.9151 37.0314 43.515 42.6324 42.7148 47.5666Z" fill="#FCFFFF"/>
<path fill-rule="evenodd" clip-rule="evenodd" d="M20.8443 49.4335C20.8443 49.4335 20.2442 48.5666 19.8441 48.2333C18.8439 40.4986 19.1106 33.4307 19.5774 33.4307C20.3775 33.4307 18.1771 42.0322 22.4446 47.2998C22.4446 47.2998 22.3112 44.766 22.3779 44.4326C22.3779 44.0992 21.8444 43.5658 21.0443 41.6321C20.2442 39.6984 20.4442 38.4315 20.4442 38.4315C20.4442 38.4315 21.7778 41.1654 22.1778 42.0322C22.5779 42.8323 23.2447 43.8325 23.2447 45.3661C23.2447 46.8997 23.5781 51.3005 23.7781 52.234C22.978 51.9672 20.8443 49.5001 20.8443 49.5001V49.4335Z" fill="#FCFFFF"/>
<path fill-rule="evenodd" clip-rule="evenodd" d="M19.1107 47.5666C18.6439 48.4334 17.9771 49.8336 17.9771 49.8336C17.5104 50.5004 16.6436 52.8342 16.6436 52.8342C16.6436 52.8342 15.9101 49.4336 15.5767 48.1667C15.31 46.8998 15.4434 44.6994 15.7768 43.3658C16.0435 42.0323 16.6436 39.3651 16.6436 39.3651C16.6436 39.3651 15.31 41.3655 14.8433 42.3657C14.8433 40.8988 15.31 34.0976 17.9105 30.8303C17.9105 37.0314 18.3105 42.6324 19.1107 47.5666Z" fill="#FCFFFF"/>
<path fill-rule="evenodd" clip-rule="evenodd" d="M31.5129 42.2322C32.2464 42.2322 33.0465 42.0322 34.0467 41.0987C35.0468 40.1652 39.3809 35.5644 40.0477 34.0975C40.7145 32.6305 40.9812 30.1634 40.9812 30.1634C40.9812 30.1634 40.7812 30.2968 40.0477 30.8302C40.5145 29.6967 40.9145 28.3631 41.1813 27.0296C41.648 24.7625 41.848 21.6286 40.3144 19.6949C39.5143 18.6948 38.1141 17.7613 35.7136 16.6277C31.3129 14.5607 30.7128 11.8269 30.7128 11.8269C30.7128 11.8269 30.1793 14.6274 25.7119 16.6277C23.3115 17.6946 21.9112 18.6281 21.1111 19.6949C19.5775 21.6286 19.7775 24.7625 20.2443 27.0296C20.511 28.3631 20.911 29.6967 21.3778 30.8302C20.6443 30.2968 20.4443 30.1634 20.4443 30.1634C20.4443 30.1634 20.711 32.6305 21.3778 34.0975C22.0446 35.5644 26.312 40.1652 27.3788 41.0987C28.379 42.0322 29.2458 42.2322 29.9126 42.2322C30.3794 42.2322 30.8461 42.2322 31.3129 42.2322H31.5129ZM33.0465 28.7632C33.0465 28.7632 33.78 29.5633 33.9133 30.0301C34.0467 30.5635 33.98 30.9636 33.3132 30.9636C32.6464 30.9636 31.913 31.6971 31.7129 31.7637C31.5129 31.8304 31.1128 31.9638 30.9128 31.8971C30.7128 31.9638 30.3127 31.8971 30.1127 31.7637C29.9126 31.6971 29.1792 30.9636 28.5124 30.9636C27.8456 30.9636 27.7789 30.5635 27.9123 30.0301C28.0456 29.4967 28.7791 28.7632 28.7791 28.7632C28.0456 29.0966 27.4455 29.7634 27.1121 30.4968C26.7787 31.297 27.5122 31.3637 28.2457 31.497C28.7791 31.5637 29.3125 32.0304 29.7793 32.3638C30.3127 32.6972 30.9795 32.6306 30.9795 32.6306C30.9795 32.6306 31.6463 32.7639 32.1797 32.3638C32.5798 32.0971 33.1799 31.6304 33.7133 31.497C34.5134 31.3637 35.2469 31.297 34.8468 30.4968C34.5134 29.6967 33.9133 29.0966 33.1799 28.7632H33.0465ZM40.4478 27.4296C38.9809 27.4296 35.7136 27.6964 34.5134 26.8295C34.4467 27.1629 34.1134 28.3631 34.8468 28.3631C36.1137 28.3631 35.847 28.3631 37.0472 28.6965C37.2472 28.7632 39.6477 28.6965 39.6477 28.6965C39.6477 28.6965 40.3811 28.5632 40.5145 27.363L40.4478 27.4296ZM39.5143 29.43C38.8475 29.43 35.847 29.63 35.3802 29.0966C35.3802 29.6967 35.2469 30.2968 35.9137 30.4302C36.5805 30.4968 39.1142 30.5635 39.1142 30.5635L39.4476 29.43H39.5143ZM21.2444 27.4296C23.3781 27.4963 25.1785 27.763 27.1788 26.8295C27.3788 26.8295 27.3788 28.0297 27.1121 28.2298C26.112 28.5632 23.5115 28.8966 22.778 28.8966C21.9779 28.8966 21.3778 28.7632 21.2444 27.4296ZM26.9788 28.9632C25.1785 29.5633 23.9782 29.43 22.1113 29.43C22.1113 29.43 22.2446 30.5635 22.778 30.4968C23.3115 30.4968 25.4452 30.3635 25.7119 30.3635C25.9786 30.3635 26.6454 29.9634 26.9121 28.9632H26.9788Z" fill="#A6B2A8"/>
<path fill-rule="evenodd" clip-rule="evenodd" d="M44.3818 19.0948C44.7152 18.8948 44.9819 19.0281 45.1819 19.2282C45.5153 19.5615 45.582 19.8949 45.3153 20.095C44.9819 20.295 44.3151 21.0952 43.715 22.0953C43.1149 23.0955 41.9147 26.0293 41.9147 26.0293C41.648 23.8956 42.1814 20.6284 44.3151 19.0948H44.3818Z" fill="#A6B2A8"/>
<path fill-rule="evenodd" clip-rule="evenodd" d="M17.2438 19.0948C16.9104 18.8948 16.6437 19.0281 16.4437 19.2282C16.1103 19.5615 16.0436 19.8949 16.3103 20.095C16.6437 20.295 17.3105 21.0952 17.9106 22.0953C18.5107 23.0955 19.7109 26.0293 19.7109 26.0293C19.9776 23.8956 19.4442 20.6284 17.3105 19.0948H17.2438Z" fill="#A6B2A8"/>
<path fill-rule="evenodd" clip-rule="evenodd" d="M35.9802 25.6953C34.98 25.6953 34.1799 24.8951 34.1799 23.895C34.1799 22.8948 34.98 22.0946 35.9802 22.0946C36.5803 22.0946 37.1137 22.3614 37.4471 22.8281C37.4471 22.8281 37.4471 22.8281 37.4471 22.8948C37.6471 23.1615 37.7805 23.5616 37.7805 23.895C37.7805 24.8951 36.9803 25.6953 35.9802 25.6953ZM35.9802 21.6946C34.78 21.6946 33.7798 22.6948 33.7798 23.895C33.7798 25.0952 34.78 26.0953 35.9802 26.0953C37.1804 26.0953 38.1806 25.0952 38.1806 23.895C38.1806 22.6948 37.1804 21.6946 35.9802 21.6946Z" fill="#901219"/>
<path fill-rule="evenodd" clip-rule="evenodd" d="M35.9804 25.4292C36.7805 25.4292 37.4473 24.7625 37.4473 23.9623C37.4473 23.829 37.4473 23.6956 37.3806 23.5622C37.2472 23.6956 37.1139 23.7623 36.9138 23.7623C36.5805 23.7623 36.3804 23.4956 36.3804 23.2289C36.3804 22.9621 36.5138 22.7621 36.7805 22.6954C36.5138 22.5621 36.2471 22.4287 35.9804 22.4287C35.1802 22.4287 34.5134 23.0955 34.5134 23.8956C34.5134 24.6958 35.1802 25.3626 35.9804 25.3626V25.4292Z" fill="#EE2732"/>
<path fill-rule="evenodd" clip-rule="evenodd" d="M36.7806 22.6955C36.5806 22.7622 36.3806 22.9623 36.3806 23.229C36.3806 23.5624 36.6473 23.7624 36.914 23.7624C37.114 23.7624 37.2474 23.6957 37.3807 23.5624C37.3807 23.6957 37.4474 23.8291 37.4474 23.9624C37.4474 24.7626 36.7806 25.4293 35.9805 25.4293C35.1804 25.4293 34.5136 24.7626 34.5136 23.9624C34.5136 23.1623 35.1804 22.4955 35.9805 22.4955C36.3139 22.4955 36.5806 22.5622 36.7806 22.7622V22.6955ZM35.9805 25.7627C36.9807 25.7627 37.7808 24.9626 37.7808 23.9624C37.7808 22.9622 36.9807 22.1621 35.9805 22.1621C34.9803 22.1621 34.1802 22.9622 34.1802 23.9624C34.1802 24.9626 34.9803 25.7627 35.9805 25.7627Z" fill="#FCFFFF"/>
<path fill-rule="evenodd" clip-rule="evenodd" d="M39.7811 23.2289C39.9145 21.962 38.7809 21.6953 37.8474 22.0954C36.9139 22.4955 35.5137 23.429 34.2468 23.6957C33.1133 23.8957 32.1131 23.7624 32.0464 22.6955C31.9797 22.2954 32.2465 21.8287 32.5798 21.6953C32.1798 22.6288 32.5798 23.2289 33.58 22.6288C34.3802 22.1621 35.5804 21.2286 36.6472 20.8285C38.7809 19.9617 40.9146 22.0954 39.7144 23.2289H39.7811Z" fill="black"/>
<path fill-rule="evenodd" clip-rule="evenodd" d="M28.9126 26.1627C28.9126 26.1627 28.7125 25.3626 28.3125 24.8958C28.1124 24.6958 28.0457 24.6291 27.779 24.8291C27.3123 25.1625 26.8455 25.9627 25.712 26.1627C24.2451 26.3627 23.3116 25.4292 23.3116 25.4292C23.3116 25.4292 25.912 25.9627 26.6455 24.229C26.0454 24.2957 25.512 24.3624 25.1786 24.2957C24.5785 24.229 24.1784 23.2955 23.7783 23.5622C23.3783 23.829 23.845 24.0957 24.045 24.3624C23.7116 24.4291 23.1782 24.3624 22.8448 24.229C21.9113 23.7623 23.7116 22.5621 24.1784 22.4954C23.5783 21.5619 21.8447 21.7619 21.8447 23.1622C20.6444 22.0953 22.5781 20.6951 23.9784 20.6951C25.0452 20.6951 26.5788 21.7619 27.3123 22.2287C28.2458 22.8955 29.446 23.6289 29.1793 21.7619C29.1793 21.7619 29.5793 22.0286 29.646 22.5621C29.7127 23.0955 29.1793 23.4289 29.1793 23.4289C29.1793 23.4289 29.246 25.8293 28.8459 26.1627H28.9126Z" fill="black"/>
<path fill-rule="evenodd" clip-rule="evenodd" d="M27.1121 28.1632C27.3788 27.9631 27.3788 26.7629 27.1788 26.7629C25.1784 27.6298 23.3781 27.4297 21.2444 27.363C21.3777 28.6966 21.9778 28.83 22.778 28.83C23.5114 28.83 26.1119 28.5633 27.1788 28.1632H27.1121Z" fill="black"/>
<path fill-rule="evenodd" clip-rule="evenodd" d="M26.9788 28.8967C25.1785 29.4968 23.9783 29.3635 22.1113 29.3635C22.1113 29.3635 22.2447 30.497 22.7781 30.497C23.3115 30.497 25.4452 30.3637 25.712 30.3637C25.9787 30.3637 26.6455 29.9636 26.9788 28.9634V28.8967Z" fill="black"/>
<path fill-rule="evenodd" clip-rule="evenodd" d="M34.7802 28.3632C36.0471 28.3632 35.7804 28.3632 36.9806 28.7633C37.1806 28.8299 39.581 28.7633 39.581 28.7633C39.581 28.7633 40.3145 28.6299 40.4479 27.4297C38.9809 27.4297 35.7137 27.6964 34.5135 26.8296C34.4468 27.163 34.1134 28.3632 34.8469 28.3632H34.7802Z" fill="black"/>
<path fill-rule="evenodd" clip-rule="evenodd" d="M39.5143 29.3634C38.8475 29.3634 35.847 29.5635 35.3803 29.03C35.3803 29.6301 35.2469 30.2302 35.9137 30.3636C36.5805 30.497 39.1809 30.497 39.1809 30.497L39.5143 29.3634Z" fill="black"/>
<path fill-rule="evenodd" clip-rule="evenodd" d="M31.8464 32.3639L31.9797 32.564L31.3796 33.2308H30.7795H30.2461L29.646 32.564L29.7793 32.3639L29.846 32.0972L29.1125 31.9639V32.8974L30.1127 33.8309H30.7795H31.513L32.5131 32.8974V31.9639L31.7797 32.0972L31.8464 32.3639Z" fill="#5F5F61"/>
<path fill-rule="evenodd" clip-rule="evenodd" d="M33.5134 31.497C34.3135 31.3636 35.047 31.2303 34.7136 30.4968C34.3802 29.6967 33.7801 29.0966 33.0466 28.7632C33.0466 28.7632 33.7801 29.5633 33.9134 30.0301C34.0468 30.5635 33.9801 30.9636 33.3133 30.9636C32.5799 30.9636 31.9131 31.697 31.713 31.7637C31.513 31.8971 31.1129 31.9637 30.9129 31.8971C30.7129 31.9637 30.3128 31.8971 30.1128 31.7637C29.9127 31.697 29.1793 30.9636 28.5125 30.9636C27.779 30.9636 27.779 30.5635 27.9124 30.0301C28.0457 29.4966 28.7792 28.7632 28.7792 28.7632C28.0457 29.0966 27.4456 29.7634 27.1122 30.4968C26.7788 31.297 27.5123 31.4303 28.3124 31.497C28.8459 31.5637 29.3793 32.0304 29.846 32.3638C30.3795 32.6972 31.0463 32.6305 31.0463 32.6305C31.0463 32.6305 31.713 32.7639 32.2465 32.3638C32.6465 32.0971 33.2466 31.6304 33.7801 31.497H33.5134Z" fill="black"/>
<path fill-rule="evenodd" clip-rule="evenodd" d="M30.7795 34.4977C32.0464 33.4308 33.9134 34.5644 35.247 35.0311C35.647 35.1645 35.8471 35.0311 35.7804 34.6977C35.7137 34.3643 35.5137 33.6309 35.5137 33.6309C35.7804 34.0309 36.8472 35.4979 36.3138 35.9646C36.1804 36.0313 36.0471 36.0313 35.8471 35.9646C34.3135 35.1645 32.5131 35.3645 30.7795 35.2978C29.0459 35.2978 27.3122 35.0978 25.712 35.9646C25.5119 36.098 25.3119 36.098 25.2452 35.9646C24.7118 35.4979 25.7786 34.0309 26.0453 33.6309C26.0453 33.6309 25.8453 34.2976 25.7786 34.6977C25.712 35.0978 25.8453 35.1645 26.3121 35.0311C27.6456 34.5644 29.5793 33.4308 30.7795 34.4977Z" fill="black"/>
<path fill-rule="evenodd" clip-rule="evenodd" d="M33.9133 36.9646C32.1796 37.3647 29.3791 37.3647 27.6455 36.9646C29.1791 39.4984 32.3797 39.4984 33.9133 36.9646Z" fill="black"/>
<path fill-rule="evenodd" clip-rule="evenodd" d="M26.7788 37.8983L28.0457 39.5652C28.3791 39.1651 28.3791 38.6317 28.0457 38.2316C27.7123 37.8316 27.1789 37.6982 26.7122 37.9649L26.7788 37.8983Z" fill="#5F5F61"/>
<path d="M26.5789 38.0315L27.8457 39.6985" stroke="#5F5F61" stroke-width="0.133357" stroke-miterlimit="22.9256"/>
<path fill-rule="evenodd" clip-rule="evenodd" d="M26.712 38.6316L27.3788 39.4317L24.7783 40.832L26.712 38.6316Z" fill="#5F5F61"/>
<path fill-rule="evenodd" clip-rule="evenodd" d="M35.1136 37.8983L33.8467 39.5652C33.5133 39.1651 33.5133 38.6317 33.8467 38.2316C34.1801 37.8316 34.7135 37.6982 35.1803 37.9649L35.1136 37.8983Z" fill="#5F5F61"/>
<path d="M35.3135 38.0315L33.98 39.6985" stroke="#5F5F61" stroke-width="0.133357" stroke-miterlimit="22.9256"/>
<path fill-rule="evenodd" clip-rule="evenodd" d="M35.1135 38.6316L34.5134 39.4317L37.1139 40.832L35.1135 38.6316Z" fill="#5F5F61"/>
</g>
<defs>
<clipPath id="clip0_2006_17">
<rect width="60.6773" height="67.1856" fill="white" transform="translate(0.77417 0.604736)"/>
</clipPath>
</defs>
</svg>
