<?xml version="1.0" encoding="UTF-8"?>
<svg id="Camada_2" data-name="Camada 2" xmlns="http://www.w3.org/2000/svg" viewBox="0 0 651.66 472.25">
  <defs>
    <style>
      .cls-1 {
        fill: #fff;
      }

      .cls-2 {
        fill: none;
      }

      .cls-3 {
        fill: #222220;
      }

      .cls-4 {
        fill: #6aa842;
      }
    </style>
  </defs>
  <g id="Camada_1-2" data-name="Camada 1">
    <g>
      <path class="cls-1" d="M651.56,75.12c-.07-16.76-16.11-31.95-28.2-43.12-12.44-11.44-22.76-28.06-41-30.08-43.75-8.11-139.63,9.82-167.65,46.25-5.88-6.1-11.93-12.04-17.96-17.99-5.86-6.39-14.99-15.16-21.94-18.07-27.98-13.71-59.35,10.92-79.8,27.83-14.45-5.55-30.71-1.52-44.8,3.17-17.32-21.75-35.48-13-59.12-11.16-48.65,6.16-102.28,14.85-144.49,41.25C.63,101.52.85,174.01,0,222.34c.45,22.6,1.28,45.52,4.84,67.94,2.05,15.47,4.83,31.99,11.16,45.86,7.96,15.66,23.23,25.71,34.77,38.56,13.81,17.25,32.88,24.29,55,24.33l.19-3.58h.03s-.18,3.58-.18,3.58c27.45-.62,58.54-6.13,79.37-24.49,7.69-6.61,12.93-19.29,18.16-28.84,3.83-7.69,10.25-20.42,13.79-28.12.07,19.62,17.73,30.84,29.85,43.76,12.65,13.75,25.23,26.65,44.09,28.53,11.12,1.36,24.6,1.86,33.47-5.69,19.78,20.84,39.12,41.95,61.55,59.74,30.28,20.88,67.1,33.08,103.85,26.56,36.31-4.79,113.54-39.11,127.91-73.61,7.06-16.26-3.88-31.72-16.06-41.62-9.42-9.62-18.87-19.03-28.27-28.27,22.36-22.34,41.3-56.29,21.65-85.18-11.19-15.77-27.05-28-40.15-42.24,23.02-1.06,49.86-5.47,64.86-24.73,19.33-27.14,33.1-65.72,31.68-99.73ZM411.4,343.69c-13.07-20.67-17.4-46.68-35.7-63.77,5.81-3.31,11.55-7.49,17.59-10.66,6.84,30.11,33.19,49.36,53.46,70.38-11.21,4.38-23.51,7.56-35.35,4.04Z"/>
      <path class="cls-3" d="M639.28,76.7c.02-10.56-9.26-22.05-17.63-28.85-8.13-8.37-16.39-16.62-24.75-24.75-13.4-15.36-43.94-10.81-62.4-9.15-36.03,4.54-103.7,16.33-116.88,54.88-12.42-13.37-25.84-25.77-38.49-38.89-26.31-25.58-62.13,7.98-83.01,25.34-13.66-11.76-34.4-2.8-49.08,2.14-7.03-5.89-12.43-16.23-22.7-16.49-10.24.81-21.16,1.96-31.22,3.23-47.18,6.07-98.51,13.95-139.64,39.33C12.5,108.08,13.15,179.51,12.38,222.33c.45,21.95,1.23,44.27,4.7,66,1.89,14.24,4.35,29.79,10.18,42.63,3.06,7.34,9.4,11.95,14.75,17.41,6.96,7.18,14.04,14.25,21.22,21.22,10.13,13.21,27.08,16.8,43.19,17.08l.2-3.64h.02s-.19,3.64-.19,3.64c24.06-.79,51.77-5.22,70.29-21.18,9.64-9.84,15.61-26.97,22.5-39.25,5.92-12.03,11.96-25.24,16.84-37.51,5.29-14.13,12.17-33.07-1.83-44.11,5.3-2.55,9.36-5.31,13.88-8.2,1.39,25.8-.98,59.04,1.89,84.86,1.3,9.02,9.01,14.51,15.06,20.58,9.62,9.73,19.11,19.65,29.17,29,15.14,8.9,45.61,14.28,49.54-8.33,15.96,22.72,36.95,40.85,56.35,60.26,28.31,26.4,68.93,42.05,107.66,35.5,13.24-1.66,22.56-5.29,34.33-9.48,10.68-2.88,21.2-7.71,31.17-13.61,19.6-11.1,42.84-22.74,52.92-42.55,6.55-15.7-11.59-25.89-20.32-35.68-10.49-9.72-19.79-24.12-33.9-27.01,29.14-23.72,58.6-64.53,21.06-94.76-18.49-16.27-34.76-44.26-62.12-43.58,1.22-9.92,2.22-21.5,4.59-31.5,8.98,7.85,16.31,18.43,26.18,24.52,19.54,6.35,38.72.04,57.02-7.52,24.49-14.1,42.26-72.77,40.58-100.43ZM456.78,332.28c4.22,4.18,8.96,7.29,14.05,9.36-19.93,11.46-45.07,21.53-67.67,12.31-4.81-7.05-6.65-13.74-11.97-20.21-6.76-23.36-17.58-40.55-35.77-56.63,15.48-8.42,31.6-18.09,46.02-28.18,5.43,42.29,28.45,55.18,55.33,83.34Z"/>
      <g>
        <path class="cls-4" d="M226.43,58.38c.08-2.54-1.94-3.73-4.18-3.21-5.03.87-10.24.91-15.67,1.75-37.17,3.91-76.76,9.66-112.5,22.88-49.48,15.77-59.3,39.66-65.12,88.69-3.23,31.24-2.91,63.67-.69,94.89,2.35,19.02,3.75,39.2,10.11,57.33,4.82,19.87,35.12,16.87,50.86,14.99,9.52-.97,20.38-4.27,29.26-7.82,16.63-5.05,21.76-22.47,29.25-36.37,9.33-20.01,21.05-40.02,25.07-62.02,5.78-20.47-54.11-6.98-62.7-1.18-5.02,1.34-4.07,18.59-4.87,23.35.68,4.89-2.65,27.28,6.62,15.33,2.62-3.67,6.1-5.27,10.45-4.9,0,0,15.33-1.39,15.33-1.39.53-.31,2.44.58,1.04.97-8.77,11.71-46.73,64.57-61.64,55.55-5.92-7.5-6.58-22.12-8.02-31.25-2.88-43.58-1.21-87.85,6.6-130.87,2.82-10.18,3.39-24.35,11.84-31.49,23.3-11.97,51.79-8.19,77.32-8.34.35.32.7.31,1.39.28-3.28,19.3-7.41,40.05-13.23,58.75-1.82,6.16-3.98,11.8-7.31,17-2.79,3.76-8.63,3.79-11.84,7.01-12.89,10.7,11.46,6.66,16.37,5.02,40.98-7.53,41.68-22.92,55.03-55.24,5.73-16.3,11.53-34.3,15.67-51.05,3.44-12.19,6.24-25.48,5.92-38.35l-.35-.32ZM35.1,252.22c-.22.06-.39.15-.51.25.14-.13.32-.23.51-.25ZM34.58,252.49c-.05.05-.09.1-.13.15.04-.06.08-.11.13-.15ZM35.93,253.85c-.38.2-.65.2-.88.1.25.08.55.06.88-.1,0-.33.05-.87-.08-1.25.14.26.2.66.08,1.25ZM125.12,244.94c.23-.29.53-.57.81-.83l-.81.83ZM122.35,306.48c.11.07.23.13.36.16-.13-.02-.25-.09-.36-.16ZM122.32,305.96c.16,0,.32.06.44.13-.21-.09-.48-.14-.65-.06.05-.04.11-.06.21-.07ZM56.56,239.5c-.03-.19-.15-.37-.43-.52.37.16.44.34.43.52ZM55.73,118.78c.07.12-.02.31-.12.5.1-.19.19-.38.12-.5ZM56.11,121c-.65-.19-.2-.71-.51-1.15.31.43-.14.96.51,1.15ZM55.64,282.47c.1-.18.18-.37.11-.48.07.12-.01.3-.11.48ZM55.82,239.55c-.03.16-.04.31-.04.47,0,.07,0,.13,0,.18-.06-.23-.05-.43.03-.65ZM56.18,240.78c.06-.22.18-.44.27-.66-.05.22-.2.44-.27.66ZM56.51,243.11c.16-.12.26-.23.31-.38-.02.18-.14.27-.31.38ZM65.88,239.21c-.15,0-.29.09-.41.21.2-.27.44-.29.64-.17-.07-.02-.15-.04-.24-.04ZM66.14,240.51c.21-.15.36-.4.4-.64.04.26-.06.51-.4.64ZM71.28,114.22s-.1-.02-.15-.03c.05,0,.1,0,.15.03ZM70.37,114.72c.05.27.29.58.56.74-.44-.24-.59-.51-.56-.74ZM71.09,115.55s-.04-.02-.06-.03c.18.08.35.08.49-.03-.13.14-.28.21-.44.06ZM71.74,115.08c.02-.07.03-.15.04-.24,0,0,0,0,0,0,0,0,0,0,0,0,0,.07-.02.15-.04.24ZM81.19,119.84c.03.15.11.25.21.3-.1-.03-.21-.1-.21-.3ZM81.77,120.14c.06-.03.1-.09.12-.15,0,.09-.04.13-.12.15ZM89.55,105.17c-.2,0-.29-.11-.4-.27.14.14.3.23.45.26-.02,0-.04,0-.05,0ZM89.99,105.09c.13-.11.23-.3.26-.63,0,.37-.11.54-.26.63ZM120.2,95.94v-.34c-.02.17.01.33.07.46-.02-.04-.05-.08-.07-.12ZM120.44,96.29c.13.12.3.19.46.17-.15.04-.3,0-.46-.17ZM121.25,96.23c0-.12,0-.25-.03-.35.05.1.07.21.03.35ZM125.1,81.74c.23-.29.53-.57.81-.83l-.81.83ZM137.86,201.41c.18.18.32.37.39.56-.07-.18-.21-.38-.39-.56ZM154.03,192.13c.07-.09.22-.16.37-.2-.15.04-.3.11-.37.2ZM154.7,191.92c.19.12.37.32.48.54-.11-.22-.29-.42-.48-.54ZM156.37,184.86c.07.09.2.14.35.16-.19-.01-.3-.07-.35-.16ZM177.35,136.57c-.01-.05-.02-.1-.02-.1-.01.04,0,.07.02.1ZM175.81,178.75c.01.08.05.18.14.29l.35.32c-.35-.26-.49-.46-.48-.61ZM176.8,178.3c.33-.03.67-.03.88-.03-.15.03-.51.01-.88.03ZM177.68,136.8c-.17,0-.26-.07-.3-.16.07.08.22.13.37.15h-.07ZM180.97,136.9c.14.06.33.08.51.05-.18.06-.37.04-.51-.05ZM181.85,136.62s0-.01,0-.02v-.34c.05.14.04.26,0,.36ZM184.29,84.47c.3.13.48.29.58.47-.1-.18-.28-.33-.58-.47ZM184.98,86.14c0-.28.03-.53.01-.75.02.22,0,.47-.01.75ZM200.15,100.65c.49.15,1.04.15,1.59.09-.56.14-1.1.09-1.59-.09ZM204.68,114.77c.1-.19.19-.38.12-.5.07.12-.02.31-.12.5ZM204.72,70.51c.09-.1.11-.22.11-.24,0,.09-.02.17-.11.24ZM205.56,75.39c.16-.12.26-.23.31-.38-.02.18-.14.27-.31.38ZM211.94,71.39c.13.06.25.04.33-.02-.09.07-.2.08-.33.02ZM214.9,71.47c.13-.03.25.05.38.35-.13-.29-.25-.38-.38-.35Z"/>
        <path class="cls-4" d="M587.43,34.46c-8.33-16.06-63.25-4.49-79.09-2.34-20.24,4.6-41.79,10.46-59.83,21.17-12.59,6.94-18.55,19.15-21.3,32.59-4.31,17.59-7.43,35.4-9.83,53.25-4.9,39.75-8.77,82.85,1.24,122.34,4.12,13.49,10.49,29.01,25.41,32.82,26.66,9.74,56.9-.35,75.4-21.49,12.19-13.34,30.01-33.75,18.02-52.03-7.31-13.01-30.22-22.19-40.57-7.32-8.38,14.99-6.95,32.94-12.29,48.97-1.98,5.85-8.94,13.99-15.16,7.9-6.06-9.38-7.63-21.09-8.61-32-1.6-9.69-1.89-27.91-1.64-37.92-.84-28.74,2.87-57.94,8.59-86,6.24-23.25,15.67-54.77,42.61-60.37,4.45-.75,11.83-.26,12.3,5.03-.48,1.31-.84,5.77-1.23,7.26-4.26,22.37-14.33,44.8-11.47,67.73,7.82,9.38,37.27-.53,47.13-4.98,17.97-11.91,39.98-74.94,30.31-94.6ZM431.58,109.04c-.2-.29-.53-.57-.84-.81.32.22.65.48.84.81ZM426.35,148.47c-.11-.06-.22-.12-.36-.14.17,0,.27.06.36.14ZM424.77,174.38s-.09,0-.18.05c.06-.05.13-.07.18-.05ZM424.5,175.1c-.11-.07-.15-.17-.14-.28,0,.04.02.18.14.28ZM420.14,176.53l-.42-1.62c.17.53.35,1.08.42,1.62ZM420.08,177.56c-.09.3-.27.56-.57.79.24-.21.44-.52.57-.79ZM419.03,173.45c-.57.03-1.01.17-1.36.38.31-.23.72-.36,1.36-.38ZM419.22,178.54c-.06.04-.12.07-.19.11-.05,0-.1-.02-.15-.03.12,0,.23-.02.34-.07ZM416.83,174.96c-.21.75-.02,1.64.42,2.35-.55-.73-.88-1.62-.42-2.35ZM416.57,187.96c-.05-.52.12-.89.44-1.15-.32.26-.49.63-.44,1.15.04.46-.08,1.13.06,1.56-.14-.43-.02-1.1-.06-1.56ZM416.17,195.98c.3,0,.76-.21,1.26-.46-.49.3-.95.54-1.26.46ZM417.59,244.12c.06.59.24,1.19.22,1.78.02-.59-.16-1.19-.22-1.78ZM417.66,243.18c.09-.3.26-.6.57-.89-.3.29-.47.59-.57.89ZM419.04,242.65c0-.19,0-.38-.05-.53.07.13.09.3.05.53ZM419.44,196.23c0-.23.14-.47.25-.71-.06.2-.13.43-.25.71ZM419.31,194.66c.25-.04.42.02.46.24-.13-.16-.28-.23-.46-.24ZM417.85,186.42c1.07-.3,2.52-.19,3.23-.26-.4-.87-.75-2.43-.42-3.46-.33,1.03.02,2.58.42,3.46-.72.07-2.17-.03-3.23.26ZM421.49,187.34c.5.35.9.53,1.22.6-.33-.06-.73-.24-1.22-.6ZM422.31,181.7c-.75-.08-1.22.18-1.49.63.27-.45.73-.71,1.49-.63.46.13.86.26,1.25.37.39.11.76.2,1.17.25-.4-.05-.78-.14-1.17-.25-.39-.11-.79-.24-1.25-.37ZM424.62,186.96c-.2.05-.37.24-.57.44.19-.2.36-.39.57-.44ZM425.21,195.17s-.02,0-.03,0c-.29.01-.58-.18-.73-.29.17.11.46.19.76.29ZM424.77,199.18c-.06-.29.02-.56.13-.83.11-.27.24-.53.28-.79-.03.27-.17.53-.28.79s-.19.54-.13.83ZM426,196.33l-.08.13c.16-.3.26-.6.18-.83.14.17.15.39-.09.7ZM425.18,187.17c.71-.09,1.26-.53,1.6-1.11-.34.58-.89,1.02-1.6,1.11ZM427.16,185c-.06.37-.18.73-.37,1.05.19-.32.32-.68.37-1.05.17-1.11-.29-2.3-1.57-2.65,1.28.35,1.74,1.54,1.57,2.65ZM426.83,148.69l.39-.02c-.15.05-.28.04-.39.02ZM427.65,197.85c.17-.04.36-.04.51.02-.15-.03-.33-.03-.51-.02ZM428.86,119.66v.13s0,.17.12.17c-.13.03-.13-.13-.12-.3ZM428.84,108.64c0-.31.08-.53.22-.67-.14.15-.21.36-.22.67ZM430.09,119.34c0,.24-.15.33-.35.38.19-.07.31-.2.35-.39h0ZM430.7,110.35c.15-.11.36-.24.58-.26-.2.09-.42.18-.58.26ZM431.37,110.05c.19-.11.31-.22.36-.35.02.12-.14.24-.36.35ZM508.99,262.54c.06-.06.13-.08.2-.06,0,0-.1,0-.2.06ZM513.7,263.47c-.03-.2-.01-.42.06-.62-.07.2-.09.42-.06.62ZM514.96,266.7c.26.3.68.63,1.2,1.06-.53-.43-.95-.75-1.2-1.06ZM515.71,252.95c-.1-.25-.23-.5-.37-.76,0-.28.05-.61.15-.94-.05.54.1,1.12.21,1.69ZM516.09,258.6c-.15.27-.45.36-.79.4.34-.04.64-.14.79-.4ZM515.75,254.58l.41-.02c.09.04.16.06.24.08-.2-.01-.42-.04-.65-.06ZM522.58,266.33c.26-.29.36-.48.14-.48.22,0,.13.19-.14.48ZM524.41,213.52c-.28.23-.59.36-.86.29.35-.02.63-.12.86-.29ZM523.09,263.43c-.31.13-.69.08-1.09-.02.33.05.65.04,1.09.02ZM520.82,263.49c-.13.07-.28.09-.45.07.17,0,.33-.02.45-.07ZM518.26,269.99c.23-.23,1.14-.94,2.09-1.71-.95.77-1.87,1.48-2.09,1.71ZM519.57,263.36c-.21-.07-.4-.13-.54-.14.18,0,.36.06.54.14ZM518.2,210.06s.01.09.02.13c0-.04-.02-.09-.02-.13-.02-.12-.06-.24-.1-.34.04.1.07.21.1.34ZM517.39,249.7v1.54c-.05-.7-.09-1.3,0-1.54ZM517.38,253.86c-.02.37-.13.58-.32.68.16-.14.26-.39.32-.68ZM516.56,214.14c-.02.12-.01.25,0,.37-.24-.54-.45-1.16-.76-1.67.31.36.58.79.76,1.31ZM515.75,242.58l.41-.02c-.43.14-.87.28-1.31.4.3-.11.6-.24.9-.38ZM516.57,243.34c-.75,1.34-1.75,1.88-2.85,2.01,1.1-.13,2.1-.67,2.85-2.01ZM514.11,259.05c.09,0,.19-.01.29-.01-.1,0-.2,0-.29.01-.34.04-.49.42-.42.75-.07-.33.08-.72.42-.75ZM512.88,214.31c-.27-.2-.48-.31-.63-.37.23,0,.3.06.63.37ZM509.29,244.63c.92.25,1.89.54,2.85.68-.95-.14-1.93-.43-2.85-.68ZM511.79,214.19c-.05.3.05.78.14,1.27-.14-.49-.28-.97-.14-1.27ZM508.78,243.3c.8.17,1.64.26,2.49.26-.84.02-1.67-.05-2.49-.26ZM508.88,212.64c.24.28.28.64-.1,1.06.29-.44.28-.79.1-1.06ZM508.46,253.01c.04-.29.11-.59.24-.83-.13.25-.2.54-.24.83ZM507.55,234.95c-.02-.07-.03-.14-.04-.2.2.34.52.55.98.56-.42.03-.94.08-.94-.36ZM507.39,232.2c.1-.62.32-1.22.7-1.72-.29.44-.54,1.06-.7,1.72ZM506.32,212.21c.27-.17.73-.22,1.19-.16-.68-.04-1.38.14-1.6.56.05-.17.18-.31.41-.39ZM498.94,234.79c-.03.11-.11.18-.26.18.13-.02.22-.08.26-.18ZM498.71,234.2c-.09-.03-.17-.03-.17-.03.06-.03.11,0,.17.03ZM498.15,234.99l-.43.02c.1-.03.26-.03.43-.02ZM494.85,227.14c0,.13-.06.24-.12.35.1-.23.08-.49-.03-.71.09.13.15.26.15.37ZM494.22,226.36c-.17-.05-.38-.05-.6.03.16-.17.39-.14.6-.03ZM493.19,227.74c-.15-.12-.3-.27-.39-.5.19.18.29.36.39.5ZM485.44,273.62c-.09.12-.26.23-.45.3.18-.07.35-.18.45-.3ZM484.56,274.02c-.18.02-.36.02-.5-.02.14.03.32.03.5.02ZM473.15,288c.02-.52.01-1.1-.2-1.46.21.37.21.94.2,1.46ZM471.11,286.87c-.42.28-.92.54-1.39.78.47-.23.96-.49,1.39-.78ZM465.97,289.3c.74.46,1.45,1.38,1.84,1.9-.39-.51-1.1-1.44-1.84-1.9ZM468.22,288.37c-.65-.37-1.46-.97-2.31-1.36.71.29,1.46.77,2.31,1.36ZM464.12,289.76c.4-.74.92-.86,1.45-.67-.53-.19-1.04-.07-1.45.67h0ZM464.12,289.78c.06.65-.09,1.23-.58,1.5.49-.26.64-.84.58-1.5ZM463.2,287.08c-.35.27-1.54,1.2-1.54,1.2.55-.56,1.06-.95,1.54-1.2ZM461.66,291.08c-.37-.12-.61-.43-.74-.8.13.37.37.69.74.8ZM444.42,62.28c.67-.25,1.25-.34,1.77-.31-.51-.03-1.09.06-1.77.31-1.25.19-2.82-.12-3.69.97.86-1.09,2.44-.78,3.69-.97ZM443.63,148.84c.03.19.15.42.4.66-.25-.24-.37-.47-.4-.66ZM443.63,252.32v.4c-.04-.16-.03-.28,0-.4ZM443.67,148.52c.07-.13.2-.22.36-.23-.16.01-.29.09-.36.23ZM438.79,153.22c-.29.58-.35,1.38-.06,1.92-.3-.54-.23-1.34.06-1.92ZM435.51,267.44c-.05-.12-.07-.25-.07-.35.02-.16.07-.29.14-.41-.11.23-.12.52-.07.76ZM435.49,74.96c-.13.4-.09.83.31.91-.4-.09-.44-.52-.31-.91ZM435.68,74.6c.15-.22.35-.38.55-.34.05,0,.09,0,.14,0-.04,0-.09,0-.14,0-.2-.04-.4.12-.55.34ZM435.8,267.89c.12.06.27.06.45-.04-.16.16-.32.14-.45.04ZM436.83,266.54c.16.19.27.47.25.87,0-.39-.1-.68-.25-.87ZM437.06,165.42c-.21.01-.32-.09-.42-.25.24.2.5.25.73.16-.1.05-.2.08-.31.09ZM437.7,165.03c.08-.12.14-.26.18-.45,0,.16-.07.31-.18.45ZM438.01,251.8c.08.43.23.87.29,1.16-.16-.36-.26-.77-.29-1.16ZM438.3,250.56s-.02.03-.04.04c.21-.29.55-.44,1.06-.33-.29-.02-.63.05-1.02.29ZM439.94,250.48c.17.15.26.35.33.58-.09-.26-.24-.49-.46-.63.05.02.09.03.13.06ZM439.83,240.35c-.06.08-.15.15-.31.15.13-.03.23-.08.31-.15ZM439.53,239.7c.16,0,.25.06.31.13-.07-.06-.17-.11-.31-.13ZM439.58,252.89c.45-.2.69-.61.76-1.04-.07.54-.35,1.01-.76,1.04ZM440.79,255.25c.04-.2.11-.38.23-.42-.12.05-.19.22-.23.42ZM439.52,155.7c.69.43,1.28.27,1.73-.16-.46.44-1.04.59-1.73.16ZM441.79,154.78c.4-.77.61-1.74.59-2.41.02.67-.19,1.65-.59,2.41ZM442.37,64.37c-.31.01-.61.03-.92-.13.31.15.61.14.92.13.08-.03.14-.06.21-.09-.07.03-.14.05-.22.09ZM443.41,255.85c.49.05.81.43,1.14.85-.33-.41-.65-.79-1.14-.85ZM444.07,251.9c.13,0,.26.05.33.19-.07-.09-.19-.16-.33-.19ZM443.77,64.04c.45.06.64.39.85.75-.2-.36-.4-.69-.85-.75ZM447.96,263.71c.4-.04.88-.09,1.26-.06l-1.26.06ZM449.67,263.77c.08.06.13.14.1.25,0,0-.01-.14-.1-.25ZM469.83,79.1l.41-.02c-.14-.02-.28-.01-.42.02,0,0,0,0,0,0ZM468.19,96.38c-.86-.48-2-1.38-3.13-1.65,1.13.27,2.28,1.17,3.13,1.65ZM460.95,96.99c-.13.24-.18.52-.14.82-.05-.3,0-.57.14-.82ZM460.83,98.01c.1,1.29,1.23.82,2.04,1.42-.8-.59-1.94-.13-2.04-1.42ZM463.36,99.19c.31-.27.51-.72.72-1.14-.08.45-.4.88-.72,1.14ZM463.28,95c-.59.59-1.79,1.13-2.28,1.92.49-.79,1.69-1.33,2.28-1.92.4-.28.82-.38,1.26-.36-.43-.02-.86.08-1.26.36ZM464.9,97.07c.3-.13.69-.1,1.25.2.13.11.27.23.41.37-.52-.39-1.13-.68-1.65-.57ZM467.54,98.64c.36.33.73.58,1.1.59-.36.07-.73-.1-1.1-.59ZM469.01,78.74c.22-.01.44.09.66.19-.28-.08-.57-.15-.86-.18h.2ZM469.79,79.11c-.24.06-.47.18-.7.28.23-.12.46-.25.7-.28ZM469.8,98.35s.02-.03.03-.05c.13-.29.47-.74.84-1.24-.27.44-.56.9-.87,1.29ZM471.53,95.74c.15-.27.28-.53.33-.75-.03.25-.11.5-.33.75ZM487.9,45.41c-.05.23.07.5.31.66-.34-.18-.4-.44-.31-.66ZM488.68,45.03c-.15-.02-.27-.02-.38,0,.16-.06.33-.07.48.02-.04,0-.06-.03-.11-.02ZM498.7,42.2c.1.07.17.21.21.37-.04-.16-.11-.3-.21-.37ZM508.06,38.48c-.29.44-.54,1.06-.7,1.72.1-.62.32-1.22.7-1.72ZM507.53,42.96c-.02-.07-.03-.14-.04-.2.2.34.52.55.98.56-.42.03-.95.08-.94-.36ZM510.13,51.51c1.08.15,2.11.22,3.14.07-1.04.18-2.06.15-3.14-.07ZM524.05,74.68c-.03-.25-.1-.48-.25-.63.15.15.22.38.25.63ZM521.74,82.21c-.41-.13-.52-.4-.58-.68.06.28.18.56.58.68ZM521,80.92c-.07-.1-.17-.16-.35-.17.18,0,.29.07.35.17ZM520.64,80.35c-.61.23-.98.69-1.17,1.24.09-.6.34-1.02,1.17-1.24ZM519.47,83.48c.22.75.67,1.43,1.29,1.83-.67-.37-1.14-1.03-1.29-1.83ZM521.45,129.41c0,.35.06.68.23.82-.26-.13-.26-.48-.23-.82ZM521.17,97.02c-.33-1.14-.33-2.35.71-2.73.06.01.12.02.19.03-1.09.13-1.23,1.4-.89,2.7ZM522.41,82.27c.09,0,.18,0,.28-.02.58-.2,1.18-.05,1.65.27-.47-.33-1.07-.47-1.65-.27-.1.01-.19.01-.28.02ZM523.16,98.38c.21-.16.36-.37.47-.61-.11.24-.27.45-.47.61ZM523.52,94.62c-.11-.05-.21-.08-.31-.11.19.03.37.07.55.12-.08,0-.16-.01-.24,0ZM524.74,84.96c.32-.33.45-.69.44-1.05.01.36-.12.72-.44,1.05ZM525.26,95.38c.42.41.69,1.01.71,1.92-.02-.77-.3-1.44-.71-1.92ZM527.62,119.23c.26.16.44.27.6.33-.16-.04-.37-.12-.6-.33ZM528.75,119.55c.14-.08.29-.2.5-.4-.26.27-.36.36-.5.4ZM534.6,64.14c.02.2.12.4.32.54-.25-.14-.34-.33-.32-.54ZM535.46,63.28c.25-.02.5.14.63.54-.14-.34-.38-.52-.63-.54ZM537.45,55.13c.2.07.47.06.81,0-.34.06-.61.07-.81,0ZM540.96,113.46s.1-.05.15-.05c-.03,0-.09.02-.15.05ZM540.71,42.48c.1-.16.21-.27.42-.28.09,0,.19.02.28.05-.22-.05-.47.03-.7.23ZM541.71,42.45c.14.14.24.33.24.52-.05-.23-.14-.4-.24-.52ZM548.1,69.48c.56-.39.94-.77,1.24-1.18-.27.44-.64.86-1.24,1.18ZM548.92,70.24c.19-.21.69-.52,1.27-.88l-1.27.88ZM550.16,66.47c.04-.49.5-.97,1.05-1.26-.52.34-.82.78-1.05,1.26ZM552.61,67.67l-.26.18c.32-.28.57-.57.71-.86-.11.25-.28.5-.45.68ZM553.02,66.05c0-.56-.21-.9-.61-1.05.37.1.63.42.61,1.05.15.14.19.34.16.55.01-.19-.03-.37-.16-.55ZM556.29,51.9c.26-.42.55-.57.81-.57-.26.04-.54.23-.81.57ZM557.93,52.36s0-.07,0-.13c-.06-.26-.14-.45-.23-.6.2.22.3.51.23.73ZM558.75,80.99c-.4.49-.65.92-.8,1.31.13-.47.39-.94.8-1.31ZM558.14,83.98c.33.34.86.47,1.36.39-.62.22-1.09.02-1.36-.39ZM559.24,80.96c.12-.02.23-.02.34-.02,0,0,0,0,0,0l-.34.02ZM560.44,83.84c.24-.28.38-.68.35-1.18.07.42.03.84-.35,1.18ZM559.64,75.07c.59-.24,1.32-.35,2.05-.35-.73,0-1.45.11-2.05.35ZM561.92,102.31c.05-.06.09-.15.11-.28,0,.13-.05.21-.11.28ZM565.85,75.97c-.31-.21-.76-.37-1.36-.45.51-.02,1,.16,1.36.45ZM566.13,77.85l-.33.18c.38-.33.6-.71.62-1.07.03.29-.05.6-.29.9Z"/>
        <path class="cls-4" d="M554.24,345.76c-10.07-4.19-21.89-4.68-32.68-4.94-4.87-.11-15.92-.68-20.56-.12-1.84-.27-3.67.53-5.14,1.67-10.65,7.18-21.42,14.37-33.41,19.47-54.5,25.99-91.31-1.46-115.3-51.3-1.27-3.18-5.11-4.33-5.14-7.65-4.96-22.23-18.74-42.79-38.93-54.11-1.37-.66-10.75-4.31-12.12-4.82-1.92-3.09,7.95-6.42,9.55-7.97,2.57-1.91,5.14-3.1,8.08-4.32,10.85-5.17,21.58-11.7,31.58-18.31,7.94-4.29,15.96-9.17,22.4-15.37,17.87-12.3,38.39-29.31,40.38-52.41,1.4-37.31-9.04-76.6-33.43-105.27-15.09-15.53-39.19,6.43-52.51,15.69-.37.02-.37.38-.73.39-6.05,5.72-16.38,14.18-22.76,19.69-.97.68-2.71,2.01-3.31.15-.85-2.27-1.5-7.6-2.94-9.54-8-7.83-27.12,1.53-36.72,4.56-7.64,3.85-5.67,50.52-7.71,61.65.07,46.46-.97,93,.02,139.44,1.24,9.03-3.48,45.77,4.41,51.77,6.64,3.94,15.88,4.82,23.5,4.65,1.92-.3,3.44-1.71,3.67-3.75,2.02-15.59.56-31.93,3.66-47.13.83-1.61,2.53-.73,3.67.19,21.75,15.13,32.55,40.18,45.17,62.43,2.38,6.01,6.31,11.76,10.65,16.35,11.55,17.96,28.55,33.45,48.48,41.13v-.36c18.73,11.16,42.23,15.04,63.89,11.38,12.11-1.19,22.72-5.9,34.15-9.47,9.13-2.78,18.42-6.88,26.8-11.99,7.57-3.72,60.76-33.21,43.32-41.79ZM291.92,217.29c.42,0,.85-.12,1.23-.32.06,0,.11-.03.17-.05-.38.28-.89.4-1.39.37ZM282.19,206.73c.23-.06.45.02.58.14-.12-.12-.35-.2-.58-.14ZM282.49,198.82c.44-23.99,2.96-50.59,4.4-74.76,1.02-5.06.86-20.62,4.4-23.5,9.31-8.76,19.03-18.21,31.58-21.53,24.41-3.78,31,57.97,24.25,74.15-6.57,15.72-24.04,23.64-37.45,32.56-3.83,1.53-24.99,17.46-27.17,13.09ZM289.29,221.44s-.11,0-.19.02c.08-.02.14-.02.19-.02ZM290.94,215.28c.26-.14.57-.23.89-.27-.51.08-.95.35-1.16.8.05-.2.13-.39.27-.53ZM312.98,270.54c-.32-1.07,1.07-2.07,1.84-2.59-.77.53-2.15,1.52-1.84,2.59ZM316.1,267.89c.24.11.49.34.66.63-.2-.27-.44-.51-.66-.63ZM316.65,270.01s-.05.04-.07.06c.22-.24.38-.52.42-.85.02.29-.07.58-.35.8ZM466.85,379.55c-.13.67.03,1.11.37,1.36-.33-.25-.49-.69-.37-1.36ZM469.79,380.85c-.49.2-.99.31-1.45.33.45-.02.96-.13,1.45-.33.92-1.21-.62-2.07-1.88-1.87,1.26-.2,2.8.66,1.88,1.87Z"/>
      </g>
      <path class="cls-2" d="M309.66,185.74c38.86-22.82,45.26-32.24,37.08-77.35-6.98-25.12-16.96-40.7-41.86-19.57-4.82,4.41-13.53,8.9-15.42,15.41-3.93,22.92-4.26,48.74-5.87,71.96-2.57,33.14-4.84,26.86,26.07,9.55Z"/>
    </g>
  </g>
</svg>