<svg width="246" height="68" viewBox="0 0 246 68" fill="none" xmlns="http://www.w3.org/2000/svg">
<path fill-rule="evenodd" clip-rule="evenodd" d="M0.371582 0.441895H21.9433L27.9799 3.90442V12.5149H17.5046V10.7396H12.0895V43.2308L17.5046 39.192V34.797H14.5751V24.4108L27.9799 24.4105V46.2051L1.83604 67.2447L2.2356 65.6912V2.57229L0.371582 0.441895Z" fill="white" stroke="white" stroke-width="0.246892" stroke-miterlimit="22.9256"/>
<path fill-rule="evenodd" clip-rule="evenodd" d="M54.6318 0.441895H61.6625V16.7286L64.5388 18.352L67.415 16.7286V0.441895H74.4457V20.4113L67.992 23.9267V47.4916H60.9504V25.0987H62.8599L54.6318 20.4113V0.441895Z" fill="white" stroke="white" stroke-width="0.246892" stroke-miterlimit="22.9256"/>
<path fill-rule="evenodd" clip-rule="evenodd" d="M77.8181 0.441895V7.33193H84.0637V47.4916H90.9887V7.33193H97.2347V0.441895H77.8181Z" fill="white" stroke="white" stroke-width="0.246892" stroke-miterlimit="22.9256"/>
<path fill-rule="evenodd" clip-rule="evenodd" d="M31.5452 0.441895H51.5728V47.4916H31.5452V0.441895ZM38.458 7.35487V40.5786H44.6597V7.35487H38.458Z" fill="white" stroke="white" stroke-width="0.246892" stroke-miterlimit="22.9256"/>
<path fill-rule="evenodd" clip-rule="evenodd" d="M146.524 0.441895H166.552V47.4916H146.524V0.441895ZM153.438 7.35487V40.5786H159.639V7.35487H153.438Z" fill="white" stroke="white" stroke-width="0.246892" stroke-miterlimit="22.9256"/>
<path fill-rule="evenodd" clip-rule="evenodd" d="M100.968 0.441895H120.622V47.4916H113.663V28.4948H115.048L107.927 24.18V47.4916H100.968V0.441895ZM107.927 7.33193V16.4044L113.663 19.9198V7.33193H107.927Z" fill="white" stroke="white" stroke-width="0.246892" stroke-miterlimit="22.9256"/>
<path fill-rule="evenodd" clip-rule="evenodd" d="M124.017 0.441895H143.441V19.9198L140.503 22.0499L143.441 24.18V47.4916H124.017V0.441895ZM130.8 7.33193H136.658V19.9198L130.8 16.4044V7.33193ZM130.8 24.18V40.1585H136.658V28.4948H138.231L130.801 24.18H130.8Z" fill="white" stroke="white" stroke-width="0.246892" stroke-miterlimit="22.9256"/>
<path fill-rule="evenodd" clip-rule="evenodd" d="M182.597 47.4916V28.4948H184.17L176.74 24.18V47.4916H169.956V0.441895H189.381V19.9198L186.442 22.0499L189.381 24.18V47.4916H182.597ZM176.74 7.33193H182.597V19.9198L176.74 16.4044V7.33193Z" fill="white" stroke="white" stroke-width="0.246892" stroke-miterlimit="22.9256"/>
<path fill-rule="evenodd" clip-rule="evenodd" d="M193.023 0.441895H212.4V14.5094H205.672V6.87601H199.994V40.1585H205.672V28.1537H207.094L203.922 26.0898V18.8545L214.506 24.7725V32.2875L212.4 31.0934V47.4916H193.023V0.441895Z" fill="white" stroke="white" stroke-width="0.246892" stroke-miterlimit="22.9256"/>
<path fill-rule="evenodd" clip-rule="evenodd" d="M216.893 0.441895H245.549V10.3135L236.849 10.3137V7.7569L225.558 11.8622V19.8306L245.549 19.8303V66.8611L216.893 46.8171V35.7386L236.849 46.8171V29.4178H216.893V0.441895Z" fill="white" stroke="white" stroke-width="0.246892" stroke-miterlimit="22.9256"/>
</svg>
